<?xml version="1.0" encoding="utf-8"?>
<!-- Generator: Adobe Illustrator 19.1.0, SVG Export Plug-In . SVG Version: 6.00 Build 0)  -->
<svg version="1.1" id="Layer_1" xmlns="http://www.w3.org/2000/svg" xmlns:xlink="http://www.w3.org/1999/xlink" x="0px" y="0px"
	 viewBox="0 0 171.4 47.6" style="enable-background:new 0 0 171.4 47.6;" xml:space="preserve">
<style type="text/css">
	.st0{fill:#005C99;}
	.st1{fill:#676E78;}
</style>
<g>
	<path class="st0" d="M91.6,0.1h20.1c4.3,0,7.8,0.6,10.4,1.8c2.6,1.2,4.8,2.8,6.6,5c1.7,2.2,3,4.7,3.8,7.6c0.8,2.9,1.2,6,1.2,9.2
		c0,5.1-0.6,9-1.7,11.8c-1.2,2.8-2.8,5.1-4.8,7c-2.1,1.9-4.3,3.1-6.6,3.8c-3.2,0.9-6.1,1.3-8.8,1.3H91.6V0.1z M104.6,10.8v26h3.6
		c3.1,0,5.3-0.3,6.5-1c1.3-0.7,2.3-1.9,3-3.6c0.7-1.7,1.1-4.4,1.1-8.2c0-5-0.8-8.5-2.5-10.3c-1.6-1.9-4.4-2.8-8.2-2.8H104.6z"/>
</g>
<path class="st0" d="M131.7,40.4c1-1.4,1.9-2.9,2.6-4.6c1.2-2.9,1.8-7,1.8-12.2c0-3.4-0.4-6.5-1.2-9.5c-0.7-2.6-1.7-4.9-3.1-6.9l0,0
	c1.8-2,4-3.7,6.6-4.9c3.1-1.5,7.3-2.2,12.5-2.2c5.1,0,7.3,0.8,9.8,1.7c2.5,0.9,4.9,2.5,7.2,4.9c1.5,1.6,3,4.7,3.1,8.9h-12.4
	c-0.6-1.7-1.5-3.1-2.9-4c-1.3-0.9-3.1-1.4-5.1-1.4c-3.1,0-5.6,1.1-7.4,3.2c-1.8,2.2-2.8,5.6-2.8,10.2c0,5,0.9,8.5,2.8,10.6
	c1.9,2.1,4.5,3.2,7.8,3.2c1.6,0,4.1-0.2,5.2-0.4c1.6-0.3,3.2-0.9,4.6-2.7v-4.7h-6.3v-8.9h16.8v19.3c-2.6,2.9-5.7,4.8-8.9,5.8
	c-3.2,1-7.7,1.5-12.1,1.5c-5.4,0-9.9-0.9-13.3-2.8C135,43.6,133.3,42.2,131.7,40.4L131.7,40.4z"/>
<g>
	<path class="st0" d="M45.3,0h12.8l17.3,25.3V0h13v47.6h-13L58.1,22.1v25.4H45.3V0z"/>
</g>
<rect x="32.6" y="10.3" class="st1" width="9.3" height="37.2"/>
<rect x="21.7" y="19.7" class="st1" width="9.3" height="27.9"/>
<rect x="10.9" y="29" class="st1" width="9.3" height="18.6"/>
<rect y="38.3" class="st1" width="9.3" height="9.2"/>
</svg>
